<?xml version="1.0" standalone="no"?><!DOCTYPE svg PUBLIC "-//W3C//DTD SVG 1.1//EN" "http://www.w3.org/Graphics/SVG/1.1/DTD/svg11.dtd"><svg t="1560708818291" class="icon" style="" viewBox="0 0 1024 1024" version="1.1" xmlns="http://www.w3.org/2000/svg" p-id="48824" xmlns:xlink="http://www.w3.org/1999/xlink" width="64" height="64"><defs><style type="text/css"></style></defs><path d="M512.0014390625 32.16308937500003C247.00192343749995 32.16308937500003 32.14486812499996 247.0123015625 32.14486812499996 512s214.85705625 479.836910625 479.8565709375 479.836910625 479.85465281250003-214.8492121875 479.85465281250003-479.836910625S776.9999946875 32.16308937500003 512.0014390625 32.16308937500003zM450.5468253125 273.9095853125c0-33.93795 27.513354375-61.4492175 61.453653749999994-61.4492175 33.938381250000006 0 61.451735625 27.5112675 61.451735625 61.4492175l0 298.1898271875c0 33.93795-27.513354375 61.45017656249999-61.451735625 61.45017656249999-33.9403003125 0-61.453653749999994-27.512226562499997-61.453653749999994-61.45017656249999L450.5468253125 273.9095853125zM511.99856093750003 811.5386731250001c-34.5226490625 0-62.5099415625-27.986145-62.5099415625-62.508339375s27.9872925-62.508339375 62.5099415625-62.508339375c34.524568125 0 62.51377875 27.986145 62.51377875 62.508339375S546.5231290625 811.5386731250001 511.99856093750003 811.5386731250001z" p-id="48825"></path></svg>