<?xml version="1.0" standalone="no"?><!DOCTYPE svg PUBLIC "-//W3C//DTD SVG 1.1//EN" "http://www.w3.org/Graphics/SVG/1.1/DTD/svg11.dtd"><svg t="1564894094051" class="icon" viewBox="0 0 1160 1024" version="1.1" xmlns="http://www.w3.org/2000/svg" p-id="4591" xmlns:xlink="http://www.w3.org/1999/xlink" width="36.25" height="32"><defs><style type="text/css"></style></defs><path d="M136.445281 719.203074c0-12.007185 9.55117-21.831245 21.285463-21.831245h135.080828l50.143641-88.8941-171.921054-84.254961a60.308814 60.308814 0 0 1-32.064641-35.543995 52.531433 52.531433 0 0 1 6.140038-44.95872l15.213649-23.877924a22.922807 22.922807 0 0 1 12.962301-9.414725c-17.05566-10.915622-29.19929-28.039505-34.315988-48.710965a87.802538 87.802538 0 0 1-0.750449-38.409347 62.628384 62.628384 0 0 1 5.867147-44.754052L278.416595 31.245969c12.962302-24.082592 39.091573-35.612218 62.764829-29.745071 18.010777-3.6158 36.294445-0.682226 52.19032 8.596053l754.951738 443.992943c5.730702 3.411132 9.960505 9.346502 11.12029 16.03232a24.560151 24.560151 0 0 1-4.707362 19.170562l-254.334003 320.851078a22.240581 22.240581 0 0 1-28.448841 5.594256l-9.278279-5.389588a49.052078 49.052078 0 0 1-42.502705 5.935369 109.838451 109.838451 0 0 1-70.951546-8.732497L450.064758 660.940939l-82.412949 145.996451a21.285464 21.285464 0 0 1-18.829449 11.734294H136.445281v123.278311l-69.450648 41.411143-32.678645 33.906652a18.35189 18.35189 0 0 1-26.265716 1.228007L0 1023.339605V500.822403c0-7.2316 2.933574-13.985641 7.913826-18.420113a18.488336 18.488336 0 0 1 17.601441-4.093359l95.511697 27.766615c9.073611 2.728906 15.418317 11.938962 15.418317 22.513471v190.68228z m42.570927 30.154407h92.032342l4.91203-8.459607h-96.876149v8.459607z m200.028782-118.09339l29.19929 16.850992 3.411132-6.003592-30.359075-14.804313-2.251347 3.956913z m-28.585287 119.38962l-14.258531 24.560151h0.409335l13.849196-24.560151z m-119.38962-272.754116l-41.274698-20.262124-3.88869 6.071815A16.236988 16.236988 0 0 0 183.996461 477.558482a18.624781 18.624781 0 0 0 9.82406 10.915623l22.513471 10.915622 14.736091-21.490132z m623.554932 258.563807l20.262124 9.960506a21.558354 21.558354 0 0 1 9.960506 9.551169l217.630223-275.005463-30.495521-18.010777-217.425554 273.504565zM41.001807 620.826027l54.578112 9.073611V546.531572l-54.578112-15.691208V620.826027z m920.732754 192.865404a23.673256 23.673256 0 0 1-2.31957-30.22263l167.281914-229.910297a17.05566 17.05566 0 0 1 26.333939-2.728906c7.982049 7.50449 8.868943 21.149019 2.31957 30.154407l-167.281914 229.910298a17.601441 17.601441 0 0 1-14.326755 7.777381 17.192105 17.192105 0 0 1-12.007184-4.980253z" p-id="4592"></path></svg>