<?xml version="1.0" standalone="no"?><!DOCTYPE svg PUBLIC "-//W3C//DTD SVG 1.1//EN" "http://www.w3.org/Graphics/SVG/1.1/DTD/svg11.dtd"><svg t="1567582951782" class="icon" viewBox="0 0 1024 1024" version="1.1" xmlns="http://www.w3.org/2000/svg" p-id="2005" xmlns:xlink="http://www.w3.org/1999/xlink" width="32" height="32"><defs><style type="text/css"></style></defs><path d="M133.312 448A384.32 384.32 0 0 1 448 133.312V0h128v133.312A384.32 384.32 0 0 1 890.688 448H1024v128h-133.312A384.32 384.32 0 0 1 576 890.688V1024H448v-133.312A384.32 384.32 0 0 1 133.312 576H0V448h133.312zM512 768a256 256 0 1 0 0-512 256 256 0 0 0 0 512z m0-128a128 128 0 1 1 0-256 128 128 0 0 1 0 256z" p-id="2006"></path></svg>