<?xml version="1.0" standalone="no"?><!DOCTYPE svg PUBLIC "-//W3C//DTD SVG 1.1//EN" "http://www.w3.org/Graphics/SVG/1.1/DTD/svg11.dtd"><svg t="1566624065374" class="icon" viewBox="0 0 1024 1024" version="1.1" xmlns="http://www.w3.org/2000/svg" p-id="4821" xmlns:xlink="http://www.w3.org/1999/xlink" width="32" height="32"><defs><style type="text/css"></style></defs><path d="M857.468 956.831H165.717c-63.617 0-115.321-51.728-115.321-115.298v-662.95c0-63.588 51.704-115.292 115.321-115.292h691.751c63.617 0 115.321 51.704 115.321 115.292v662.95c0 63.571-51.704 115.298-115.321 115.298M252.185 265.045h-57.661V322.7h57.661v-57.655z m0 144.122h-57.661v57.661h57.661v-57.661z m0 144.134h-57.661v57.66h57.661v-57.66z m0 144.116h-57.661v57.661h57.661v-57.661z m547.657-432.372H309.833c-15.951 0-28.854 12.932-28.854 28.831 0 15.928 12.902 28.836 28.854 28.836h490.009c15.929 0 28.819-12.908 28.819-28.836 0-15.899-12.89-28.831-28.819-28.831m0 144.122H309.833c-15.951 0-28.854 12.926-28.854 28.825 0 15.939 12.902 28.836 28.854 28.836h490.009c15.929 0 28.819-12.896 28.819-28.836 0-15.899-12.89-28.825-28.819-28.825m0 144.134H309.833c-15.951 0-28.854 12.926-28.854 28.818 0 15.916 12.902 28.842 28.854 28.842h490.009c15.929 0 28.819-12.926 28.819-28.842 0-15.892-12.89-28.818-28.819-28.818m0 144.116H309.833c-15.951 0-28.854 12.914-28.854 28.831 0 15.928 12.902 28.83 28.854 28.83h490.009c15.929 0 28.819-12.902 28.819-28.83 0-15.917-12.89-28.831-28.819-28.831" fill="" p-id="4822"></path></svg>