<?xml version="1.0" standalone="no"?><!DOCTYPE svg PUBLIC "-//W3C//DTD SVG 1.1//EN" "http://www.w3.org/Graphics/SVG/1.1/DTD/svg11.dtd"><svg t="1578281921597" class="icon" viewBox="0 0 1365 1024" version="1.1" xmlns="http://www.w3.org/2000/svg" p-id="7090" xmlns:xlink="http://www.w3.org/1999/xlink" width="42.65625" height="32"><defs><style type="text/css"></style></defs><path d="M1182.293333 28.672H155.392C70.656 28.672 1.962667 97.365333 1.962667 182.016v688.896c0 84.650667 68.693333 152.746667 153.429333 152.746667h1026.218667c84.736 0 153.429333-68.693333 153.429333-152.746667V182.016a152.405333 152.405333 0 0 0-152.746667-153.344zM856.234667 332.8h213.333333c16.725333 0 32.768 22.613333 32.768 39.936 0 17.408-15.36 40.106667-32.682667 40.106667h-213.418666c-16.64 0-32.682667-22.698667-32.682667-40.106667 0-17.322667 15.36-39.936 32.682667-39.936z m0 169.984h213.333333c16.725333 0 32.768 22.698667 32.768 40.106667 0 17.237333-15.36 39.936-32.682667 39.936h-213.418666c-16.64 0-32.682667-22.698667-32.682667-40.021334 0-17.322667 15.36-40.021333 32.682667-40.021333zM160.085333 799.573333a31.402667 31.402667 0 0 1-24.746666-36.010666 273.322667 273.322667 0 0 1 194.730666-210.773334 158.72 158.72 0 0 1-85.333333-140.714666c0-88.661333 72.021333-160 160.682667-160 88.746667 0 160.768 72.021333 160.768 160a158.72 158.72 0 0 1-85.333334 140.8 275.285333 275.285333 0 0 1 194.645334 211.370666 30.890667 30.890667 0 0 1-24.661334 36.010667c-1.962667 0.597333-4.010667 0.597333-5.973333 0.597333L160.085333 799.573333z m1011.541334-46.677333h-315.392c-16.64 0-32.682667-22.698667-32.682667-40.106667 0-16.64 15.36-39.936 32.682667-39.936h315.392c16.725333 0 32.682667 22.698667 32.682666 40.021334 0 17.322667-15.957333 40.021333-32.682666 40.021333z" p-id="7091"></path></svg>