<?xml version="1.0" standalone="no"?><!DOCTYPE svg PUBLIC "-//W3C//DTD SVG 1.1//EN" "http://www.w3.org/Graphics/SVG/1.1/DTD/svg11.dtd"><svg t="1560697005857" class="icon" style="" viewBox="0 0 1024 1024" version="1.1" xmlns="http://www.w3.org/2000/svg" p-id="33260" xmlns:xlink="http://www.w3.org/1999/xlink" width="64" height="64"><defs><style type="text/css"></style></defs><path d="M936.516407 247.981522 87.483593 247.981522c-19.436659 0-35.340204-15.903545-35.340204-35.340204L52.143389 51.785446c0-19.436659 15.903545-35.340204 35.340204-35.340204l849.032815 0c19.436659 0 35.340204 15.903545 35.340204 35.340204l0 160.854866C971.856611 232.077978 955.953066 247.981522 936.516407 247.981522zM924.057372 175.137347 924.057372 89.287404c0-8.228159-6.731947-14.959099-14.959099-14.959099L642.262064 74.328305c-8.228159 0-14.959099 6.731947-14.959099 14.959099l0 85.849943c0 8.228159 6.731947 14.959099 14.959099 14.959099l266.836209 0C917.325425 190.096445 924.057372 183.365505 924.057372 175.137347z" p-id="33261"></path><path d="M936.516407 865.410596 87.483593 865.410596c-19.436659 0-35.340204-15.903545-35.340204-35.340204L52.143389 669.21452c0-19.436659 15.903545-35.340204 35.340204-35.340204l849.032815 0c19.436659 0 35.340204 15.903545 35.340204 35.340204l0 160.854866C971.856611 849.507052 955.953066 865.410596 936.516407 865.410596zM924.057372 792.566421l0-85.848936c0-8.228159-6.731947-14.959099-14.959099-14.959099L642.262064 691.758386c-8.228159 0-14.959099 6.731947-14.959099 14.959099l0 85.848936c0 8.228159 6.731947 14.959099 14.959099 14.959099l266.836209 0C917.325425 807.526526 924.057372 800.794579 924.057372 792.566421z" p-id="33262"></path><path d="M936.516407 556.695556 87.483593 556.695556c-19.436659 0-35.340204-15.903545-35.340204-35.340204L52.143389 360.499479c0-19.436659 15.903545-35.340204 35.340204-35.340204l849.032815 0c19.436659 0 35.340204 15.903545 35.340204 35.340204L971.856611 521.354345C971.856611 540.792011 955.953066 556.695556 936.516407 556.695556zM924.057372 483.852387l0-85.848936c0-8.228159-6.731947-14.959099-14.959099-14.959099L412.657971 383.044353c-8.228159 0-14.959099 6.731947-14.959099 14.959099l0 85.848936c0 8.228159 6.731947 14.959099 14.959099 14.959099l496.439295 0C917.325425 498.811486 924.057372 492.079539 924.057372 483.852387z" p-id="33263"></path></svg>