<?xml version="1.0" standalone="no"?><!DOCTYPE svg PUBLIC "-//W3C//DTD SVG 1.1//EN" "http://www.w3.org/Graphics/SVG/1.1/DTD/svg11.dtd"><svg t="1561570643833" class="icon" viewBox="0 0 1024 1024" version="1.1" xmlns="http://www.w3.org/2000/svg" p-id="3601" width="32" height="32" xmlns:xlink="http://www.w3.org/1999/xlink"><defs><style type="text/css"></style></defs><path d="M366.592 179.712V14.336s0.512-8.704-16.896-12.8c-14.336-3.072-28.16 6.656-28.16 6.656C315.392 12.8 30.208 215.04 30.208 215.04S3.072 228.864 3.072 256.512c0 26.624 19.456 37.888 19.456 37.888l292.864 201.216s18.432 6.656 34.304 3.584c16.896-3.584 16.896-15.872 16.896-15.872V328.192h285.184s224.768 30.208 224.768 113.664c0 0-3.584-262.144-231.936-262.144m13.312 666.112v165.376s3.072 10.24 21.504 12.288c12.288 1.536 19.968-4.608 22.528-6.656 6.144-4.096 291.84-206.848 291.84-206.848s27.136-13.824 27.136-41.472c0-27.136-19.456-37.888-19.456-37.888l-293.376-201.216s-12.288-7.168-28.672-3.072c-20.48 5.12-21.504 15.872-21.504 15.872v154.624h-286.72s-224.768-30.208-224.768-113.664c0 0 3.584 262.144 232.448 262.144" p-id="3602"></path></svg>