<?xml version="1.0" standalone="no"?><!DOCTYPE svg PUBLIC "-//W3C//DTD SVG 1.1//EN" "http://www.w3.org/Graphics/SVG/1.1/DTD/svg11.dtd"><svg t="1587610248473" class="icon" viewBox="0 0 1024 1024" version="1.1" xmlns="http://www.w3.org/2000/svg" p-id="7484" xmlns:xlink="http://www.w3.org/1999/xlink" width="200" height="200"><defs><style type="text/css"></style></defs><path d="M511.706311 64.021106c-247.27171 0-447.724091 200.453405-447.724091 447.724091s200.453405 447.724091 447.724091 447.724091 447.724091-200.453405 447.724091-447.724091S758.976998 64.021106 511.706311 64.021106zM257.851673 799.552112c15.745612-126.195144 123.393331-223.846184 253.854639-223.846184s238.109026 97.650017 253.854639 223.846184c-67.652819 59.718103-156.520823 95.957469-253.854639 95.957469S325.504492 859.269191 257.851673 799.552112zM383.78485 383.823736c0-70.64906 57.272401-127.921461 127.921461-127.921461s127.921461 57.272401 127.921461 127.921461-57.272401 127.921461-127.921461 127.921461S383.78485 454.472795 383.78485 383.823736zM818.766732 741.968625c-27.566846-94.65173-97.698113-171.166381-188.29448-207.430306 44.530193-35.139312 73.115228-89.586364 73.115228-150.71356 0-105.97359-85.908602-191.882192-191.882192-191.882192S319.824119 277.851169 319.824119 383.823736c0 61.127196 28.586059 115.575272 73.115228 150.71356-90.596368 36.263925-160.727635 112.778576-188.29448 207.430306-48.161906-64.133669-76.702939-143.844106-76.702939-230.222405 0-211.94718 171.817204-383.76336 383.76336-383.76336s383.76336 171.817204 383.76336 383.76336C895.469672 598.123496 866.928638 677.834956 818.766732 741.968625z" p-id="7485"></path></svg>