<?xml version="1.0" standalone="no"?><!DOCTYPE svg PUBLIC "-//W3C//DTD SVG 1.1//EN" "http://www.w3.org/Graphics/SVG/1.1/DTD/svg11.dtd"><svg t="1587610036553" class="icon" viewBox="0 0 1024 1024" version="1.1" xmlns="http://www.w3.org/2000/svg" p-id="2769" xmlns:xlink="http://www.w3.org/1999/xlink" width="200" height="200"><defs><style type="text/css"></style></defs><path d="M546.133333 853.333333l-165.973333-287.36a160.426667 160.426667 0 0 0 25.173333-85.333333v-1.066667l251.946667-125.226666 121.386667 121.6 165.973333-165.973334L853.333333 218.88l-74.666666 75.306667-53.333334-53.333334V170.666667h106.666667V42.666667H597.333333v174.08l-262.613333 130.56A160 160 0 1 0 245.333333 640h4.906667l123.52 213.333333H42.666667v128h938.666666v-128zM640 243.2V85.333333h149.333333v42.666667h-106.666666v130.56l96 96 74.666666-75.306667 30.08 30.08-106.666666 105.6-113.066667-113.066666-264.96 132.693333a158.72 158.72 0 0 0-30.08-56.533333zM128 480a117.333333 117.333333 0 1 1 117.333333 117.333333A117.546667 117.546667 0 0 1 128 480z m167.04 152.106667a162.986667 162.986667 0 0 0 55.466667-31.786667L496.853333 853.333333h-73.813333zM938.666667 938.666667H85.333333v-42.666667h853.333334z" p-id="2770"></path><path d="M320 480a74.666667 74.666667 0 1 0-74.666667 74.666667 74.666667 74.666667 0 0 0 74.666667-74.666667z m-106.666667 0a32 32 0 1 1 32 32 32 32 0 0 1-32-32z" p-id="2771"></path></svg>